<svg xmlns="http://www.w3.org/2000/svg" viewBox="0 0 144 52.72"><defs><style>.cls-1,.cls-2{fill:#fff;}.cls-1{fill-rule:evenodd;}</style></defs><title>logo</title><g id="Layer_2" data-name="Layer 2"><g id="Layer_1-2" data-name="Layer 1"><path class="cls-1" d="M41.05,13.32h0q.15,0,.15.12c0,.08-.06.11-.13.11h0v.15h0l.14.35h.18l-.16-.38a.22.22,0,0,0,.15-.21c0-.24-.17-.28-.33-.29v.15Zm0,1.14h0v-.12a.72.72,0,0,0,.7-.71.71.71,0,0,0-.7-.7V12.8a.84.84,0,0,1,.82.83.83.83,0,0,1-.82.83Zm-.16-1.14h.16v-.15h-.32v.88h.16V13.7h.16v-.15h-.16v-.23Zm.16-.52h0v.13h0a.7.7,0,0,0-.7.7.7.7,0,0,0,.7.71h0v.12h0a.83.83,0,1,1,0-1.66Z"/><polygon class="cls-1" points="1.44 13.21 1.44 13.19 1.44 11.71 2.93 11.71 2.93 13.2 2.93 13.21 2.93 22.57 2.93 22.61 2.93 24.07 1.44 24.07 1.44 22.59 1.44 22.57 1.44 13.21 1.44 13.21"/><path class="cls-1" d="M30.25,16.77l.29.69,1.51,3.69.18.59.19-.59,1.92-4.73c.35-1.31,1.75-1.87,3.29-1.87a5.6,5.6,0,0,1,2,.33v1.43a3.75,3.75,0,0,0-2.39-1c-.83,0-1.84.37-1.84,1.6,0,.92.54,1.09,2.17,1.89,1.33.58,2.56,1.22,2.57,2.7,0,2.48-2.43,2.9-3.62,2.91A4.2,4.2,0,0,1,34,23.74V22.11l.09.07A4.08,4.08,0,0,0,37,23.54C38.05,23.55,39,23,39,22c0-.85-.76-1.35-2.11-1.92s-2.13-.92-2.47-1.85c-.53,1.28-3,7.23-3.55,8.5h-.64V25.45c.33-.64.77-1.58,1.16-2.48l-1.16-2.78V16.77l.29.69-.29-.69ZM30,16.2h0l.23.57L30,16.2Zm.23,10.53H30V25.9c.05-.08.09-.16.14-.26L30,25.9l.14-.26v0l.08-.17v1.28Zm0-6.54h0L30,19.63V16.21l0,0,.21.53v3.42Zm-1.4-5.48h0l.63.15L30,16.08l.05.12L30,16.08s0,.08.05.13v3.42l-1.15-2.78,0,0h0l0,.05,0-.05V14.71Zm1.17,12h-.45l.32-.58L30,25.9l-.13.25L30,25.9v.83Zm-1.17-7h0a2.2,2.2,0,0,1,.89,1.77,2.51,2.51,0,0,1-.89,2V19.75Zm-5.11,2.5h0a4,4,0,0,0,2.81,1.26c1.08,0,2-.52,2-1.54,0-.85-.75-1.35-2.1-1.92a5,5,0,0,1-2.44-1.55,5,5,0,0,1,.09,1,4.75,4.75,0,0,1-4.47,5h-.06v-.87h.07c1.69,0,3-1.87,3-4.12s-1.4-4-3.06-4v-1h.06a4.47,4.47,0,0,1,4,2.87,2.71,2.71,0,0,1,0-.29c0-1.78,1.71-2.53,3.5-2.53h.2a7.71,7.71,0,0,1,1.44.19V16.8l0-.07,0,.07h0l-.12-.28a1.69,1.69,0,0,0-.92-1.06,3,3,0,0,0-1-.15c-.84,0-1.91.37-1.91,1.6,0,.92.61,1.09,2.23,1.89a7.57,7.57,0,0,1,1.69.94v3.81a4.44,4.44,0,0,1-2.73.86,4.57,4.57,0,0,1-2.38-.57v-1.6Zm-4.13,2.2h0a4.75,4.75,0,0,1-4.41-5,5.17,5.17,0,0,1,1.84-4H14v8.65H12.67V15.42H11.49v-.9h1.2a2.79,2.79,0,0,1,2.84-2.85,5,5,0,0,1,1.89.25v1.24c0,.09,0,.14,0,.14h0a2.65,2.65,0,0,0-2.09-.78c-.89,0-1.49.73-1.28,2h5a2.84,2.84,0,0,1,.58,0v1h-.06c-1.69,0-3,1.87-3,4.12s1.4,4,3.05,4v.87Z"/><path class="cls-1" d="M5.7,14.61l0,1.08v.07h0l.06-.11a3.44,3.44,0,0,1,2.88-1.17,2.65,2.65,0,0,1,2.62,2.17v7.42H10V17.26a1.89,1.89,0,0,0-2-1.79c-.94,0-2.13.83-2.17,1.68v6.92H4.39V14.61H5.7Z"/><path class="cls-2" d="M80.53,39.22H67.29c0,1.2-.27,2.4,1.14,3a9.17,9.17,0,0,0,3.37.42c1.72,0,3.7.13,3.7-2.1h5a4.09,4.09,0,0,1-1.79,3.8c-1.8,1.07-4.88,1-6.94,1s-5.92,0-7.54-1.6-1.62-4-1.63-6c0-2.86.66-4.78,1.95-5.76s3.57-1.47,6.94-1.43c3.53,0,5.81.48,6.83,1.19a5.09,5.09,0,0,1,2,3.88c.09.86.14,2.54.18,3.68Zm-5-2.88c0-1.51-.31-2.06-2.15-2.23a23.2,23.2,0,0,0-4.33.06c-1.6.19-1.78.78-1.78,2.17Z"/><polygon class="cls-1" points="115.66 21.15 111.48 19.98 110.31 24.15 114.48 25.33 115.66 21.15 115.66 21.15"/><polygon class="cls-1" points="107.11 21.4 101.29 15.51 95.4 21.33 101.22 27.22 107.11 21.4 107.11 21.4"/><polygon class="cls-1" points="107.11 21.4 101.29 15.51 95.4 21.33 101.22 27.22 107.11 21.4 107.11 21.4"/><polygon class="cls-1" points="107.11 21.4 101.29 15.51 95.4 21.33 101.22 27.22 107.11 21.4 107.11 21.4"/><polygon class="cls-1" points="112.04 14.18 109.99 6.56 102.37 8.61 104.42 16.22 112.04 14.18 112.04 14.18"/><polygon class="cls-1" points="112.04 14.18 109.99 6.56 102.37 8.61 104.42 16.22 112.04 14.18 112.04 14.18"/><polygon class="cls-1" points="119.02 10.47 120.91 3.22 113.66 1.33 111.77 8.58 119.02 10.47 119.02 10.47"/><polygon class="cls-1" points="119.02 10.47 120.91 3.22 113.66 1.33 111.77 8.58 119.02 10.47 119.02 10.47"/><polygon class="cls-1" points="127.19 10.04 132.15 4.95 127.06 0 122.11 5.09 127.19 10.04 127.19 10.04"/><polygon class="cls-1" points="127.19 10.04 132.15 4.95 127.06 0 122.11 5.09 127.19 10.04 127.19 10.04"/><polygon class="cls-1" points="133.41 14.28 139.85 12.41 137.99 5.97 131.55 7.83 133.41 14.28 133.41 14.28"/><polygon class="cls-1" points="136.39 20.95 142.53 22.42 144 16.28 137.86 14.81 136.39 20.95 136.39 20.95"/><polygon class="cls-1" points="134.71 27.41 139.02 31.45 143.07 27.14 138.75 23.09 134.71 27.41 134.71 27.41"/><polygon class="cls-1" points="129.86 32.01 131.5 37.28 136.77 35.65 135.13 30.37 129.86 32.01 129.86 32.01"/><polygon class="cls-1" points="124.11 33.22 123 38.23 128.01 39.33 129.12 34.32 124.11 33.22 124.11 33.22"/><polygon class="cls-1" points="119 30.73 115.83 34.24 119.35 37.42 122.52 33.9 119 30.73 119 30.73"/><polygon class="cls-1" points="119 30.73 115.83 34.24 119.35 37.42 122.52 33.9 119 30.73 119 30.73"/><polygon class="cls-1" points="115.9 26.37 111.78 27.73 113.14 31.85 117.26 30.48 115.9 26.37 115.9 26.37"/><polygon class="cls-1" points="115.9 26.37 111.78 27.73 113.14 31.85 117.26 30.48 115.9 26.37 115.9 26.37"/><path class="cls-2" d="M99.24,46.27l-2,.06L91.17,30.64h5.48l3.95,11,4.71-11h4.75l-6.59,17.17c-1.69,4.4-2.93,5.1-7.78,4.87V49c2.46.16,3-.15,3.55-2.75Z"/><path class="cls-2" d="M59.76,34.65H54.9c0-1.69-6-1.27-7.24-.87-1.58.5-1.44,2-.08,2.37a18.81,18.81,0,0,0,4,.28,29.18,29.18,0,0,1,5.64.47c2.4.55,3.2,1.53,3.29,3.92.17,4.7-6.46,4.45-9.7,4.45h-.27c-2,0-4.9.07-6.71-.73-1.64-.73-2-2.28-2.11-3.93h4.94c0,1.12.53,1.42,1.42,1.6a20.71,20.71,0,0,0,5.78.11c.82-.13,1.78-.41,1.8-1.44,0-1.84-2.92-1.81-4.3-1.84-1.78,0-3.64,0-5.41-.21-2.62-.19-4.27-1.17-4.22-4.07,0-2.19.85-3.27,3.11-3.82a31.52,31.52,0,0,1,6.12-.4,28,28,0,0,1,5.05.29c2,.39,3.77,1.5,3.77,3.82Z"/><path class="cls-2" d="M34.16,43.35h0L34,43.29c-1,2.11-4.32,2-6.34,2-3.34,0-7.21-.32-7.21-4.52,0-2.71,1.46-3.82,3.91-4.25a25.44,25.44,0,0,1,6-.18,4.24,4.24,0,0,1,3.41,1.56h.18v-2.2c0-1.31-.29-1.65-1.59-1.89a18.84,18.84,0,0,0-5.25,0A1.21,1.21,0,0,0,26,34.87H21.21a3.6,3.6,0,0,1,2.05-3.61c2.54-1.16,11.4-1.16,13.71.4a4.24,4.24,0,0,1,1.69,3.85v9.6H33.94l.22-1.76Zm-8.8-3c0,2,2.32,1.75,3.9,1.75,1,0,1.91,0,2.58-.1,1-.15,1.84-.56,1.82-1.69,0-1.71-2.92-1.63-4.1-1.61s-1.95,0-2.52.1c-.88.09-1.68.57-1.68,1.55Z"/><path class="cls-2" d="M17.9,39.22H4.66c0,1.2-.27,2.4,1.14,3a9.17,9.17,0,0,0,3.37.42c1.72,0,3.7.13,3.7-2.1h5a4.09,4.09,0,0,1-1.79,3.8c-1.8,1.07-4.88,1-6.94,1s-5.92,0-7.54-1.6-1.62-4-1.63-6c0-2.86.65-4.78,2-5.76s3.57-1.47,6.94-1.43c3.53,0,5.81.48,6.83,1.19a5.09,5.09,0,0,1,2,3.88c.09.86.14,2.54.18,3.68Zm-5-2.88c0-1.51-.32-2.06-2.15-2.23a23.2,23.2,0,0,0-4.33.06c-1.6.19-1.78.78-1.78,2.17Z"/><polygon class="cls-1" points="88.98 35.52 84.29 35.52 84.29 40.22 88.98 40.22 88.98 35.52 88.98 35.52"/></g></g></svg>